<?xml version="1.0" encoding="UTF-8"?>
<!-- Generated by Pixelmator Pro 3.7.1 -->
<svg width="500" height="500" viewBox="0 0 500 500" xmlns="http://www.w3.org/2000/svg">
    <path id="Path" fill="none" stroke="#000000" stroke-width="6" d="M 467.779999 245.779999 C 467.779999 368.387207 368.387207 467.779999 245.779999 467.779999 C 123.172791 467.779999 23.779999 368.387207 23.779999 245.779999 C 23.779999 123.172791 123.172791 23.779999 245.779999 23.779999 C 368.387207 23.779999 467.779999 123.172791 467.779999 245.779999 Z"/>
    <path id="path1" fill="#000000" stroke="none" d="M 312.448792 397.154724 C 270.190735 415.819153 220.803253 396.692749 202.138809 354.434692 C 183.474365 312.176575 202.600769 262.789124 244.858856 244.124695 C 287.116943 225.460236 336.504364 244.58667 355.168854 286.844757 C 373.833252 329.102814 354.706879 378.490265 312.448792 397.154724 Z"/>
    <path id="path2" fill="#000000" stroke="none" d="M 246.591949 248.048523 C 204.333862 266.712982 154.946396 247.586548 136.281952 205.328491 C 117.617508 163.070374 136.743912 113.682983 179.001999 95.018524 C 221.260056 76.354126 270.647522 95.480499 289.311981 137.738586 C 307.97641 179.996613 288.850037 229.384125 246.591949 248.048523 Z"/>
    <path id="path3" fill="none" stroke="#000000" stroke-width="29" d="M 354.073425 289.673187 C 311.815369 308.337646 262.427917 289.211212 243.763474 246.953156 C 225.09903 204.695068 244.225433 155.307648 286.483521 136.643127 C 328.741608 117.97876 378.129059 137.105103 396.793457 179.36319 C 415.457916 221.621277 396.331543 271.008728 354.073425 289.673187 Z"/>
    <path id="path4" fill="none" stroke="#000000" stroke-width="29" d="M 204.96727 355.530029 C 162.709183 374.194489 113.321754 355.068115 94.657303 312.809998 C 75.992844 270.551941 95.119255 221.164459 137.37735 202.500031 C 179.635406 183.835602 229.022858 202.962006 247.687286 245.220062 C 266.351776 287.478149 247.225342 336.865601 204.96727 355.530029 Z"/>
</svg>
