<?xml version="1.0" encoding="UTF-8"?>
<!-- Generated by Pixelmator Pro 3.7.1 -->
<svg width="1024" height="1024" viewBox="0 0 1024 1024" xmlns="http://www.w3.org/2000/svg">
    <path id="Path" fill="#14121c" stroke="none" d="M 219.428574 0 L 804.571411 0 C 925.758484 0 1024 98.241516 1024 219.428589 L 1024 804.571411 C 1024 925.758484 925.758484 1024 804.571411 1024 L 219.428574 1024 C 98.241516 1024 0 925.758484 0 804.571411 L 0 219.428589 C 0 98.241516 98.241516 0 219.428574 0 Z"/>
    <path id="path1" fill="#7f77dd" stroke="none" opacity="0.1" d="M 987.428589 512 C 987.428589 774.571899 774.571899 987.428589 512 987.428589 C 249.428055 987.428589 36.57143 774.571899 36.57143 512 C 36.57143 249.42804 249.428055 36.571411 512 36.571411 C 774.571899 36.571411 987.428589 249.42804 987.428589 512 Z"/>
    <path id="path2" fill="#7f77dd" stroke="none" opacity="0.14" d="M 914.285706 512 C 914.285706 734.17627 734.17627 914.285706 512 914.285706 C 289.82373 914.285706 109.714287 734.17627 109.714287 512 C 109.714287 289.82373 289.82373 109.714294 512 109.714294 C 734.17627 109.714294 914.285706 289.82373 914.285706 512 Z"/>
    <path id="path3" fill="#7f77dd" stroke="none" d="M 603.428589 420.571411 C 603.428589 521.560669 521.560669 603.428589 420.571442 603.428589 C 319.582214 603.428589 237.714279 521.560669 237.714279 420.571411 C 237.714279 319.582153 319.582214 237.714294 420.571442 237.714294 C 521.560669 237.714294 603.428589 319.582153 603.428589 420.571411 Z"/>
    <path id="path4" fill="#afa9ec" stroke="none" d="M 786.285706 420.571411 C 786.285706 521.560669 704.417786 603.428589 603.428589 603.428589 C 502.439362 603.428589 420.571442 521.560669 420.571442 420.571411 C 420.571442 319.582153 502.439362 237.714294 603.428589 237.714294 C 704.417786 237.714294 786.285706 319.582153 786.285706 420.571411 Z"/>
    <path id="path5" fill="#afa9ec" stroke="none" d="M 603.428589 603.428589 C 603.428589 704.417725 521.560669 786.285706 420.571442 786.285706 C 319.582214 786.285706 237.714279 704.417725 237.714279 603.428589 C 237.714279 502.439331 319.582214 420.571411 420.571442 420.571411 C 521.560669 420.571411 603.428589 502.439331 603.428589 603.428589 Z"/>
    <path id="path6" fill="#7f77dd" stroke="none" d="M 786.285706 603.428589 C 786.285706 704.417725 704.417786 786.285706 603.428589 786.285706 C 502.439362 786.285706 420.571442 704.417725 420.571442 603.428589 C 420.571442 502.439331 502.439362 420.571411 603.428589 420.571411 C 704.417786 420.571411 786.285706 502.439331 786.285706 603.428589 Z"/>
</svg>
